:FULLY-SPECIFIED
:FORCE-ALL-JOINTS-BE-3DOF
:DEGREES
404
root 9.91535 17.0027 20.9392 7.36361 1.61386 -1.96632
lfemur -35.9291 4.02895 -20.7005
ltibia 45.4983 -0 0
lfoot -7.37108 9.13141 -0.0837741
ltoes 0.981064 -0 0
rfemur -0.340549 2.14736 24.7014
rtibia 30.9565 -0 0
rfoot 0.98093 5.66768 0.409623
rtoes -16.7046 0 0
lowerback -6.93541 1.37595 -0.710268
upperback -1.91926 1.8428 1.80683
thorax 1.83027 0.919123 2.41713
lowerneck -19.0878 -6.35457 -14.1406
upperneck 21.5541 -8.1629 13.7061
head 11.354 -3.30987 6.15978
lclavicle 1.35701e-14 -7.94162e-15 -1.41237e-31
lhumerus -45.6738 -9.90223 92.7874
lradius 23.2525 -0 0
lwrist 1.99567 0 0
lhand -10.4574 -22.6865 -0.0088451
lfingers 7.12502 -0 0
lthumb 15.5415 6.68536 -0.0139669
rclavicle 1.35701e-14 -7.94162e-15 -1.41237e-31
rhumerus -38.9752 12.3374 -87.683
rradius 35.5277 -0 0
rwrist -17.0904 0 0
rhand -27.724 -29.2153 -0.0350758
rfingers 7.12502 -0 0
rthumb -1.11929 -59.1848 -0.0340666
405
root 9.93218 17.0011 21.0866 7.38921 1.50658 -1.95092
lfemur -36.0704 3.96179 -20.7853
ltibia 45.047 -0 0
lfoot -7.20591 9.06593 -0.0824525
ltoes 1.15912 -0 0
rfemur 0.104057 2.05416 24.589
rtibia 30.957 -0 0
rfoot 1.50013 5.76999 0.403125
rtoes -16.7782 0 0
lowerback -6.96532 1.42945 -0.719965
upperback -1.94739 1.91546 1.78161
thorax 1.81495 0.955727 2.40277
lowerneck -19.0774 -6.36322 -14.1551
upperneck 21.5801 -8.17107 13.692
head 11.3629 -3.31675 6.15651
lclavicle 1.36266e-14 -7.61901e-15 -1.3901e-31
lhumerus -45.7126 -9.63398 92.635
lradius 23.1032 -0 0
lwrist 1.72123 0 0
lhand -10.3565 -22.6978 -0.00870562
lfingers 7.12502 -0 0
lthumb 15.6388 6.66682 -0.0137467
rclavicle 1.36266e-14 -7.61901e-15 -1.3901e-31
rhumerus -39.0559 12.1888 -87.7557
rradius 35.3261 -0 0
rwrist -16.9343 0 0
rhand -27.6628 -29.2892 -0.0345227
rfingers 7.12502 -0 0
rthumb -1.06015 -59.2591 -0.0335294
406
root 9.94901 16.9996 21.2341 7.41479 1.39929 -1.93556
lfemur -36.2115 3.89442 -20.87
ltibia 44.5956 -0 0
lfoot -7.04074 9.00044 -0.080942
ltoes 1.33719 -0 0
rfemur 0.548821 1.96183 24.476
rtibia 30.9575 -0 0
rfoot 2.01933 5.87223 0.3957
rtoes -16.8519 0 0
lowerback -6.99524 1.48295 -0.72969
upperback -1.97555 1.98811 1.75635
thorax 1.79962 0.992327 2.38841
lowerneck -19.067 -6.37187 -14.1696
upperneck 21.606 -8.17923 13.6778
head 11.3719 -3.32364 6.15323
lclavicle 1.3683e-14 -7.29639e-15 -1.36465e-31
lhumerus -45.7522 -9.36583 92.4827
lradius 22.954 -0 0
lwrist 1.44679 0 0
lhand -10.2555 -22.7091 -0.00854621
lfingers 7.12502 -0 0
lthumb 15.736 6.64828 -0.013495
rclavicle 1.3683e-14 -7.29639e-15 -1.36465e-31
rhumerus -39.1363 12.0402 -87.8281
rradius 35.1246 -0 0
rwrist -16.7781 0 0
rhand -27.6015 -29.3632 -0.0338905
rfingers 7.12502 -0 0
rthumb -1.00101 -59.3335 -0.0329155
407
root 9.96585 16.998 21.3815 7.44033 1.292 -1.92026
lfemur -36.3525 3.82683 -20.9545
ltibia 44.1443 -0 0
lfoot -6.87557 8.93497 -0.0792428
ltoes 1.51525 -0 0
rfemur 0.993742 1.87038 24.3622
rtibia 30.9581 -0 0
rfoot 2.5385 5.97439 0.387349
rtoes -16.9255 0 0
lowerback -7.02517 1.53644 -0.739443
upperback -2.00374 2.06074 1.73106
thorax 1.78429 1.02892 2.37403
lowerneck -19.0567 -6.38052 -14.1841
upperneck 21.632 -8.18739 13.6637
head 11.3809 -3.33053 6.14996
lclavicle 1.37395e-14 -6.97377e-15 -1.33602e-31
lhumerus -45.7924 -9.09778 92.3302
lradius 22.8047 -0 0
lwrist 1.17234 0 0
lhand -10.1546 -22.7204 -0.00836688
lfingers 7.12502 -0 0
lthumb 15.8333 6.62975 -0.0132118
rclavicle 1.37395e-14 -6.97377e-15 -1.33602e-31
rhumerus -39.2165 11.8915 -87.9002
rradius 34.9231 -0 0
rwrist -16.622 0 0
rhand -27.5403 -29.4371 -0.0331794
rfingers 7.12502 -0 0
rthumb -0.941881 -59.4078 -0.0322248
408
root 9.98268 16.9964 21.5289 7.46584 1.1847 -1.905
lfemur -36.4934 3.75905 -21.0388
ltibia 43.693 -0 0
lfoot -6.7104 8.86949 -0.0773548
ltoes 1.69331 -0 0
rfemur 1.43882 1.77982 24.2477
rtibia 30.9586 -0 0
rfoot 3.05767 6.07648 0.378072
rtoes -16.9991 0 0
lowerback -7.05511 1.58993 -0.749224
upperback -2.03197 2.13337 1.70573
thorax 1.76894 1.06552 2.35965
lowerneck -19.0463 -6.38917 -14.1987
upperneck 21.6579 -8.19553 13.6495
head 11.3898 -3.33741 6.14668
lclavicle 1.3796e-14 -6.65115e-15 -1.30421e-31
lhumerus -45.8334 -8.82985 92.1777
lradius 22.6554 -0 0
lwrist 0.897899 0 0
lhand -10.0537 -22.7318 -0.00816763
lfingers 7.12502 -0 0
lthumb 15.9305 6.61121 -0.0128972
rclavicle 1.3796e-14 -6.65115e-15 -1.30421e-31
rhumerus -39.2965 11.7427 -87.9722
rradius 34.7215 -0 0
rwrist -16.4659 0 0
rhand -27.4791 -29.511 -0.0323893
rfingers 7.12502 -0 0
rthumb -0.882748 -59.4822 -0.0314574
409
root 9.99951 16.9948 21.6764 7.49133 1.07739 -1.88979
lfemur -36.6342 3.69105 -21.123
ltibia 43.2416 -0 0
lfoot -6.54524 8.80403 -0.0752781
ltoes 1.87137 -0 0
rfemur 1.88406 1.69015 24.1326
rtibia 30.9591 -0 0
rfoot 3.57681 6.17848 0.367871
rtoes -17.0728 0 0
lowerback -7.08506 1.64341 -0.759033
upperback -2.06023 2.20598 1.68036
thorax 1.75359 1.1021 2.34526
lowerneck -19.036 -6.39781 -14.2132
upperneck 21.6839 -8.20368 13.6354
head 11.3988 -3.3443 6.14341
lclavicle 1.38525e-14 -6.32853e-15 -1.26922e-31
lhumerus -45.875 -8.56202 92.0251
lradius 22.5061 -0 0
lwrist 0.623455 0 0
lhand -9.95271 -22.7431 -0.00794845
lfingers 7.12502 -0 0
lthumb 16.0277 6.59267 -0.0125511
rclavicle 1.38525e-14 -6.32853e-15 -1.26922e-31
rhumerus -39.3763 11.5938 -88.0438
rradius 34.52 -0 0
rwrist -16.3097 0 0
rhand -27.4179 -29.585 -0.0315201
rfingers 7.12502 -0 0
rthumb -0.823616 -59.5565 -0.0306133
410
root 10.0163 16.9933 21.8238 7.51678 0.970074 -1.87463
lfemur -36.7748 3.62285 -21.2069
ltibia 42.7903 -0 0
lfoot -6.38008 8.73857 -0.0730127
ltoes 2.04943 -0 0
rfemur 2.32946 1.60137 24.0167
rtibia 30.9596 -0 0
rfoot 4.09593 6.28039 0.356746
rtoes -17.1464 0 0
lowerback -7.11502 1.69689 -0.768871
upperback -2.08853 2.27857 1.65496
thorax 1.73822 1.13869 2.33085
lowerneck -19.0256 -6.40645 -14.2277
upperneck 21.7098 -8.21181 13.6212
head 11.4078 -3.35118 6.14013
lclavicle 1.3909e-14 -6.00591e-15 -1.23105e-31
lhumerus -45.9173 -8.2943 91.8724
lradius 22.3569 -0 0
lwrist 0.349011 0 0
lhand -9.85177 -22.7544 -0.00770935
lfingers 7.12502 -0 0
lthumb 16.125 6.57414 -0.0121735
rclavicle 1.3909e-14 -6.00591e-15 -1.23105e-31
rhumerus -39.4558 11.4449 -88.1153
rradius 34.3184 -0 0
rwrist -16.1536 0 0
rhand -27.3566 -29.6589 -0.030572
rfingers 7.12502 -0 0
rthumb -0.764486 -59.6309 -0.0296924
411
root 10.0332 16.9917 21.9712 7.54221 0.862753 -1.85952
lfemur -36.9154 3.55444 -21.2907
ltibia 42.3389 -0 0
lfoot -6.21492 8.67311 -0.0705586
ltoes 2.22749 -0 0
rfemur 2.77501 1.5135 23.9002
rtibia 30.9601 -0 0
rfoot 4.61504 6.38219 0.344698
rtoes -17.2201 0 0
lowerback -7.14499 1.75036 -0.778737
upperback -2.11685 2.35116 1.62952
thorax 1.72285 1.17527 2.31644
lowerneck -19.0152 -6.41509 -14.2422
upperneck 21.7358 -8.21994 13.607
head 11.4167 -3.35807 6.13685
lclavicle 1.39655e-14 -5.6833e-15 -1.1897e-31
lhumerus -45.9603 -8.02669 91.7196
lradius 22.2076 -0 0
lwrist 0.0745669 0 0
lhand -9.75083 -22.7657 -0.00745033
lfingers 7.12502 -0 0
lthumb 16.2222 6.5556 -0.0117645
rclavicle 1.39655e-14 -5.6833e-15 -1.1897e-31
rhumerus -39.5351 11.2958 -88.1864
rradius 34.1169 -0 0
rwrist -15.9974 0 0
rhand -27.2954 -29.7328 -0.0295448
rfingers 7.12502 -0 0
rthumb -0.705356 -59.7052 -0.0286948
412
root 10.05 16.9901 22.1187 7.5676 0.755425 -1.84446
lfemur -37.0558 3.48583 -21.3744
ltibia 41.8876 -0 0
lfoot -6.04976 8.60767 -0.0679158
ltoes 2.40555 -0 0
rfemur 3.22073 1.42654 23.783
rtibia 30.9606 -0 0
rfoot 5.13412 6.48387 0.331729
rtoes -17.2937 0 0
lowerback -7.17497 1.80383 -0.788631
upperback -2.14522 2.42373 1.60404
thorax 1.70746 1.21185 2.30201
lowerneck -19.0049 -6.42372 -14.2567
upperneck 21.7617 -8.22806 13.5929
head 11.4257 -3.36495 6.13357
lclavicle 1.4022e-14 -5.36068e-15 -1.14516e-31
lhumerus -46.004 -7.7592 91.5666
lradius 22.0583 -0 0
lwrist -0.199877 0 0
lhand -9.64988 -22.777 -0.00717139
lfingers 7.12502 -0 0
lthumb 16.3195 6.53707 -0.011324
rclavicle 1.4022e-14 -5.36068e-15 -1.14516e-31
rhumerus -39.6141 11.1466 -88.2574
rradius 33.9154 -0 0
rwrist -15.8413 0 0
rhand -27.2342 -29.8068 -0.0284387
rfingers 7.12502 -0 0
rthumb -0.646228 -59.7796 -0.0276205
413
root 10.0668 16.9885 22.2661 7.59297 0.648091 -1.82944
lfemur -37.1962 3.41702 -21.4578
ltibia 41.4362 -0 0
lfoot -5.88461 8.54223 -0.0650844
ltoes 2.58361 -0 0
rfemur 3.66661 1.34049 23.6651
rtibia 30.9612 -0 0
rfoot 5.65317 6.58543 0.317839
rtoes -17.3674 0 0
lowerback -7.20496 1.85729 -0.798554
upperback -2.17361 2.49629 1.57852
thorax 1.69207 1.24842 2.28758
lowerneck -18.9945 -6.43236 -14.2712
upperneck 21.7877 -8.23618 13.5787
head 11.4347 -3.37183 6.13029
lclavicle 1.40785e-14 -5.03806e-15 -1.09745e-31
lhumerus -46.0484 -7.49183 91.4136
lradius 21.9091 -0 0
lwrist -0.474321 0 0
lhand -9.54894 -22.7883 -0.00687252
lfingers 7.12502 -0 0
lthumb 16.4167 6.51854 -0.0108521
rclavicle 1.40785e-14 -5.03806e-15 -1.09745e-31
rhumerus -39.6929 10.9973 -88.328
rradius 33.7138 -0 0
rwrist -15.6851 0 0
rhand -27.173 -29.8807 -0.0272536
rfingers 7.12502 -0 0
rthumb -0.587102 -59.8539 -0.0264695
414
root 10.0837 16.987 22.4135 7.61831 0.54075 -1.81448
lfemur -37.3364 3.348 -21.5411
ltibia 40.9849 -0 0
lfoot -5.71946 8.4768 -0.0620644
ltoes 2.76167 -0 0
rfemur 4.11265 1.25536 23.5466
rtibia 30.9617 -0 0
rfoot 6.1722 6.68687 0.303029
rtoes -17.441 0 0
lowerback -7.23496 1.91074 -0.808504
upperback -2.20204 2.56884 1.55297
thorax 1.67667 1.28499 2.27314
lowerneck -18.9841 -6.44099 -14.2857
upperneck 21.8137 -8.24429 13.5645
head 11.4437 -3.37872 6.12701
lclavicle 1.4135e-14 -4.71544e-15 -1.04655e-31
lhumerus -46.0935 -7.22457 91.2605
lradius 21.7598 -0 0
lwrist -0.748765 0 0
lhand -9.448 -22.7996 -0.00655374
lfingers 7.12502 -0 0
lthumb 16.5139 6.5 -0.0103488
rclavicle 1.4135e-14 -4.71544e-15 -1.04655e-31
rhumerus -39.7715 10.8479 -88.3985
rradius 33.5123 -0 0
rwrist -15.529 0 0
rhand -27.1117 -29.9546 -0.0259894
rfingers 7.12502 -0 0
rthumb -0.527977 -59.9283 -0.0252417
415
root 10.1005 16.9854 22.561 7.64362 0.433402 -1.79956
lfemur -37.4765 3.27877 -21.6242
ltibia 40.5336 -0 0
lfoot -5.55431 8.41138 -0.0588559
ltoes 2.93973 -0 0
rfemur 4.55885 1.17116 23.4274
rtibia 30.9622 -0 0
rfoot 6.6912 6.78816 0.287302
rtoes -17.5147 0 0
lowerback -7.26497 1.9642 -0.818483
upperback -2.23051 2.64137 1.52738
thorax 1.66125 1.32156 2.25868
lowerneck -18.9737 -6.44961 -14.3002
upperneck 21.8396 -8.25239 13.5504
head 11.4526 -3.3856 6.12372
lclavicle 1.41915e-14 -4.39282e-15 -9.92474e-32
lhumerus -46.1393 -6.95743 91.1072
lradius 21.6105 -0 0
lwrist -1.02321 0 0
lhand -9.34705 -22.8109 -0.00621504
lfingers 7.12502 -0 0
lthumb 16.6112 6.48147 -0.00981394
rclavicle 1.41915e-14 -4.39282e-15 -9.92474e-32
rhumerus -39.8499 10.6984 -88.4687
rradius 33.3108 -0 0
rwrist -15.3729 0 0
rhand -27.0505 -30.0285 -0.0246463
rfingers 7.12502 -0 0
rthumb -0.468853 -60.0026 -0.0239373
